<svg id="Capa_1" data-name="Capa 1" xmlns="http://www.w3.org/2000/svg" viewBox="0 0 640 19.82"><defs><style>.cls-1{fill:#fff;}</style></defs><title>dientes y banderas</title><polygon class="cls-1" points="640 18.83 621.17 0 602.35 18.82 583.52 0 564.7 18.82 545.88 0 527.05 18.82 508.23 0 489.41 18.82 470.58 0 451.76 18.82 432.94 0 414.12 18.82 395.29 0 376.47 18.82 357.65 0 338.82 18.82 320 0 301.18 18.82 282.35 0 263.53 18.82 244.71 0 225.88 18.82 207.06 0 188.24 18.82 169.42 0 150.59 18.82 131.77 0 112.95 18.82 94.12 0 75.3 18.82 56.48 0 37.66 18.82 18.83 0 0 18.83 0 19.82 640 19.82 640 18.83"/></svg>